<?xml version="1.0" encoding="utf-8"?>
<!-- Generator: Adobe Illustrator 26.5.0, SVG Export Plug-In . SVG Version: 6.00 Build 0)  -->
<svg version="1.1" id="Calque_1" xmlns="http://www.w3.org/2000/svg" xmlns:xlink="http://www.w3.org/1999/xlink" x="0px" y="0px"
	 viewBox="0 0 431.7 431.7" style="enable-background:new 0 0 431.7 431.7;" xml:space="preserve">
<style type="text/css">
	.st0{fill:#161616;}
	.st1{fill:#FFFFFF;}
</style>
<polygon class="st0" points="431.7,0 0,0 0,431.7 431.7,431.7 431.7,418.8 288.9,216.3 431.7,14.6 "/>
<path class="st1" d="M23.4,376.3c12.3-18.1,23.9-35.2,35.6-52.1c0.9-1.2,3.3-1.9,5-2c8.8-0.3,17.7,0.4,26.4-0.7
	c22.5-2.7,39.5-15,52.7-32.8c32-43.1,30-109.6-4.6-150.4c-15.4-18.2-34.9-28.4-59.4-27.7c-3.7,0.1-7.4-0.4-11,0.1
	c-5.8,0.7-9.3-1.4-12.5-6.4c-9.5-14.8-19.7-29.2-29.6-43.8c-0.7-1.1-1.4-2.2-2.2-3.4c0.8-0.3,1.2-0.6,1.6-0.6
	c20.7,0,41.3-0.6,62,0.1c34.7,1.2,63.6,16.1,87.1,41.1c30.6,32.5,44.6,71.8,45.2,116.1c0.6,42.6-11.3,81.1-38.8,114
	c-26.5,31.7-60.2,49.1-102.3,48.5c-16.3-0.2-32.7,0-49,0C28,376.3,26.2,376.3,23.4,376.3z"/>
<path class="st1" d="M408.1,376.3c-6.5,0-12.1,0-17.7,0c-14.5,0-29-0.1-43.5,0.1c-2.9,0-4.8-0.7-6.6-3.3
	c-34.7-51.2-69.5-102.3-104.4-153.4c-1.6-2.4-1.8-4-0.1-6.5c34.9-51.1,69.7-102.2,104.5-153.3c1-1.5,2.9-3.3,4.4-3.3
	c20.8-0.2,41.6-0.1,63.1-0.1c-1.1,1.8-1.7,3-2.5,4.2c-34.1,50-68,100.1-102.3,150c-3.1,4.5-2.8,7.3,0.2,11.6
	c34.4,50.2,68.6,100.5,102.9,150.9C406.7,373.8,407.1,374.5,408.1,376.3z"/>
</svg>
